<?xml version="1.0" encoding="UTF-8" standalone="no"?><!DOCTYPE svg PUBLIC "-//W3C//DTD SVG 1.1//EN" "http://www.w3.org/Graphics/SVG/1.1/DTD/svg11.dtd"><svg width="100%" height="100%" viewBox="0 0 336 143" version="1.1" xmlns="http://www.w3.org/2000/svg" xmlns:xlink="http://www.w3.org/1999/xlink" xml:space="preserve" xmlns:serif="http://www.serif.com/" style="fill-rule:evenodd;clip-rule:evenodd;stroke-linecap:round;stroke-linejoin:round;stroke-miterlimit:1.5;"><g><g><path d="M265.262,118.185c-1.168,4.473 -2.564,7.923 -4.187,9.952c-4.896,6.119 -14.618,2.759 -25.67,-3.528l29.857,-6.424Zm-140.332,-8.584c-18.958,12.172 -40.986,28.869 -49.252,18.536c-1.274,-1.592 -2.408,-4.059 -3.401,-7.208l52.653,-11.328Zm143.58,-11.502c-0.552,5.712 -1.288,10.989 -2.207,15.545l-36.222,7.792c-5.769,-3.57 -11.737,-7.626 -17.451,-11.315l55.88,-12.022Zm1.068,-39.004c0.169,4.954 0.223,10.013 0.164,15.034l-103.425,22.251c-7.151,0.149 -14.277,1.079 -21.115,2.788c-2.651,0.663 -5.666,1.962 -8.924,3.674l-65.122,14.01c-1.001,-4.159 -1.823,-9.099 -2.463,-14.539l200.885,-43.218Zm0.084,19.369c-0.131,5.218 -0.387,10.35 -0.768,15.235l-61.363,13.201c-5.98,-3.673 -11.5,-6.612 -15.98,-7.732c-3.12,-0.78 -6.3,-1.397 -9.515,-1.852l87.626,-18.852Zm-1.388,-38.476c0.504,4.668 0.88,9.666 1.128,14.827l-201.16,43.277c-0.457,-4.71 -0.788,-9.716 -0.996,-14.855l201.028,-43.249Zm-3.258,-18.686c1.116,4.024 2.035,8.957 2.757,14.476l-200.67,43.172c-0.132,-4.984 -0.151,-10.051 -0.055,-15.058l93.661,-20.15c10.351,0.812 20.901,-0.025 30.842,-2.51c4.374,-1.094 9.738,-3.921 15.554,-7.471l57.911,-12.459Zm-138.617,10.434c7.06,4.478 13.625,8.201 18.803,9.496c1.139,0.284 2.286,0.547 3.439,0.789l-81.482,17.53c0.172,-5.257 0.471,-10.401 0.9,-15.264l58.34,-12.551Zm-19.728,-12.772c4.853,3.003 9.848,6.351 14.713,9.534l-52.894,11.379c0.519,-4.783 1.172,-9.216 1.959,-13.121l36.222,-7.792Zm110.585,8.295c17.559,-11.542 36.332,-24.354 43.819,-14.996c0.959,1.199 1.838,2.893 2.638,5.002l-46.457,9.994Zm-145.766,-5.044c1.169,-4.473 2.564,-7.923 4.188,-9.952c4.895,-6.119 14.617,-2.759 25.67,3.528l-29.858,6.424Z" style="fill:#0065ef;"/><path d="M203.138,54.267c0,-8.793 -7.139,-15.932 -15.932,-15.932l-37.659,0c-8.794,0 -15.933,7.139 -15.933,15.932l0,31.866c0,8.793 7.139,15.932 15.933,15.932l37.659,0c8.793,0 15.932,-7.139 15.932,-15.932l0,-31.866Z" style="fill:#0050fd;stroke:#f00;stroke-width:9.66px;"/><g transform="matrix(0.999926,0.0121544,-0.0121544,0.999926,-13.383,44.6374)"><text x="160.381px" y="38.863px" style="font-family:'Otari-Bold-Limited', 'Otari';font-weight:700;font-size:67.901px;fill:#fff;">w</text></g></g></g><path d="M72.787,63.132c4.633,-0.422 1.32,13.386 -3.753,15.168c-5.074,1.783 -9.976,3.977 -14.706,6.582c-4.731,2.605 -9.204,5.519 -13.421,8.741c-4.216,3.222 -7.935,6.479 -11.158,9.77c-3.222,3.291 -5.844,6.53 -7.867,9.718c-2.022,3.188 -3.17,6.085 -3.445,8.69l-0.72,1.44c-0.48,0.548 -1.405,0.651 -2.776,0.308c-1.371,-0.343 -2.743,-1.063 -4.114,-2.16c-1.371,-1.096 -2.468,-2.485 -3.291,-4.164c-0.822,-1.68 -0.891,-3.617 -0.205,-5.811c2.262,-5.553 5.279,-10.626 9.05,-15.22c3.77,-4.593 7.935,-8.724 12.494,-12.392c4.559,-3.668 9.393,-6.89 14.5,-9.667c5.108,-2.776 10.147,-5.073 15.118,-6.89c4.97,-1.817 9.351,-3.663 14.294,-4.113Z" style="fill:#0065ef;fill-rule:nonzero;"/><path d="M263.288,75.441c-4.632,0.422 -1.319,-13.386 3.754,-15.169c5.073,-1.782 9.975,-3.976 14.706,-6.581c4.73,-2.606 9.204,-5.519 13.42,-8.742c4.217,-3.222 7.936,-6.478 11.158,-9.769c3.222,-3.291 5.845,-6.53 7.867,-9.718c2.023,-3.188 3.171,-6.085 3.445,-8.69l0.72,-1.44c0.48,-0.548 1.406,-0.651 2.777,-0.308c1.371,0.342 2.742,1.062 4.113,2.159c1.371,1.097 2.468,2.485 3.291,4.165c0.823,1.68 0.891,3.617 0.206,5.81c-2.263,5.554 -5.279,10.627 -9.05,15.22c-3.771,4.594 -7.936,8.724 -12.495,12.392c-4.559,3.668 -9.392,6.891 -14.5,9.667c-5.107,2.777 -10.147,5.073 -15.117,6.89c-4.971,1.817 -9.352,3.664 -14.295,4.114Z" style="fill:#0065ef;fill-rule:nonzero;"/></svg>